<svg xmlns="http://www.w3.org/2000/svg" height="40px" viewBox="0 -960 960 960" width="40px" fill="currentColor"><path d="M371.33-198.67v-66.66H840v66.66H371.33Zm0-248v-66.66H840v66.66H371.33Zm0-248.66V-762H840v66.67H371.33ZM192.67-160.67q-29.7 0-50.85-20.5-21.15-20.5-21.15-50.5t20.83-50.83q20.83-20.83 50.83-20.83t50.5 21.15q20.5 21.15 20.5 50.85 0 29.15-20.76 49.91-20.75 20.75-49.9 20.75Zm0-248q-29.7 0-50.85-20.83-21.15-20.83-21.15-50.5t21.15-50.5q21.15-20.83 50.85-20.83 29.15 0 49.9 20.83 20.76 20.83 20.76 50.5t-20.76 50.5q-20.75 20.83-49.9 20.83Zm-51.17-269.5q-20.83-20.83-20.83-50.5 0-29.66 20.83-50.5Q162.33-800 192-800t50.5 20.83q20.83 20.84 20.83 50.5 0 29.67-20.83 50.5-20.83 20.84-50.5 20.84t-50.5-20.84Z"/></svg>
